<svg width="301" height="48" viewBox="0 0 301 48" fill="none" xmlns="http://www.w3.org/2000/svg">
<rect width="48.0318" height="47.1691" rx="10" fill="#D9DFFF"/>
<path fill-rule="evenodd" clip-rule="evenodd" d="M24.535 36.9935C31.989 36.9935 38.0318 30.9508 38.0318 23.4968C38.0318 16.0427 31.989 10 24.535 10C17.0809 10 11.0382 16.0427 11.0382 23.4968C11.0382 25.8035 11.6169 27.9751 12.637 29.8743C12.6326 32.322 12.1116 35.9377 10 36.9935C10 37.3345 11.5117 37.4067 17.5138 35.0258C19.5594 36.2742 21.9632 36.9935 24.535 36.9935ZM24.535 32.9586C19.3094 32.9586 15.0732 28.7224 15.0732 23.4968C15.0732 18.2712 19.3094 14.035 24.535 14.035C29.7606 14.035 33.9968 18.2712 33.9968 23.4968C33.9968 28.7224 29.7606 32.9586 24.535 32.9586Z" fill="#407BFF"/>
<g clip-path="url(#clip0_1304_150)">
<path d="M212.764 37.8181C211.119 37.8181 209.816 37.8181 208.305 37.8181C208.305 29.719 208.305 21.7357 208.305 13.7814C212.178 12.7969 212.843 13.0431 214.776 16.0545C216.52 18.7706 218.275 21.4751 220.246 24.5242C220.923 23.6266 221.477 22.9693 221.947 22.254C223.588 19.758 225.186 17.233 226.828 14.7399C227.653 13.489 230.712 12.7709 231.925 13.5845C232.261 13.8104 232.535 14.3924 232.532 14.8123C232.517 22.3467 232.459 29.8811 232.401 37.4156C232.401 37.4793 232.301 37.543 232.103 37.7775C230.954 37.7775 229.659 37.7775 228.096 37.7775C228.096 32.5133 228.096 26.343 228.096 21.0845C228.032 21.0845 222.852 28.5042 220.299 32.1861C217.78 28.4999 215.441 25.0744 212.764 21.1566C212.764 27.026 212.764 32.2874 212.764 37.8181Z" fill="#407BFF"/>
<path d="M58.0318 33.719C58.8599 32.7257 59.6356 31.7905 60.5016 30.748C61.3648 31.3069 62.0267 31.7847 62.7353 32.1843C64.8028 33.3454 66.9665 34.1417 69.4073 33.7595C71.1452 33.4873 72.5041 32.3551 72.542 31.026C72.5858 29.4132 71.4077 28.6661 70.1217 28.2259C67.7626 27.4181 65.2869 26.9258 62.9803 26.0021C59.0465 24.424 57.5419 19.8112 59.9068 16.2989C60.7699 15.0161 62.2484 13.8115 63.7064 13.3077C68.2029 11.7498 72.3466 12.8704 76.3387 15.7632C75.5339 16.9417 74.8136 17.9986 74.1867 18.9194C72.0842 18.1607 70.2646 17.3673 68.3691 16.878C67.4739 16.6492 66.2725 16.7332 65.4939 17.1704C64.6716 17.6308 63.7968 18.6298 63.6772 19.4927C63.581 20.1906 64.4208 21.233 65.1207 21.7658C65.873 22.342 66.9374 22.5302 67.8793 22.8372C69.4598 23.3526 71.0898 23.7348 72.6324 24.3371C75.7672 25.5591 77.2281 27.5657 77.1494 30.4961C77.0677 33.5858 75.598 35.7546 72.7403 37.1213C68.4275 39.1859 60.5512 37.2053 58.0318 33.719Z" fill="#1D293D"/>
<path d="M132.84 16.6579C132.035 17.6106 131.207 18.5951 130.248 19.7331C127.437 17.7727 124.585 16.0093 121.179 17.2023C119.68 17.7264 118.132 18.7051 117.131 19.9068C114.504 23.0659 114.761 28.2578 117.475 31.1331C119.199 32.9574 121.383 34.2315 123.914 33.6784C126.121 33.1948 128.183 32.0568 130.636 31.0781C131.19 31.6572 132.018 32.5259 132.843 33.3888C130.463 37.1647 125.206 38.8905 120.004 37.6251C114.734 36.3424 110.978 31.9671 110.631 26.6999C110.212 20.3382 113.055 15.5576 118.531 13.4148C123.517 11.4718 129.557 12.7778 132.84 16.6579Z" fill="#1D293D"/>
<path d="M171.912 37.2922C171.399 37.4167 171.163 37.5122 170.921 37.5238C167.413 37.6947 167.407 37.6947 166.019 34.4516C164.193 30.1863 162.385 25.9153 160.554 21.6529C160.175 20.7697 159.732 19.9126 159.111 18.6096C157.072 23.399 155.229 27.7279 153.387 32.0569C153.031 32.8966 152.663 33.7306 152.305 34.5674C150.864 37.9292 150.753 37.9842 146.738 37.2169C146.872 36.6696 146.928 36.0934 147.146 35.5896C150.228 28.5329 153.384 21.5081 156.387 14.4225C157.026 12.9139 158.006 12.8502 159.315 12.8502C160.554 12.8473 161.493 12.9313 162.085 14.3183C165.202 21.6297 168.422 28.9006 171.597 36.1889C171.726 36.4814 171.775 36.8028 171.912 37.2922Z" fill="#1D293D"/>
<path d="M247.575 18.6211C244.802 25.1073 242.201 31.1824 239.544 37.3906C238.112 37.3906 236.657 37.3906 234.873 37.3906C235.572 35.7314 236.15 34.3068 236.768 32.8995C239.497 26.6797 242.276 20.483 244.939 14.2372C245.496 12.9283 246.374 12.853 247.511 12.8849C248.663 12.9139 249.777 12.659 250.409 14.1358C253.643 21.6702 256.959 29.167 260.236 36.6812C260.292 36.8115 260.222 36.9968 260.201 37.3066C259.854 37.3761 259.475 37.5209 259.093 37.5209C255.139 37.5093 256.014 37.9523 254.55 34.66C252.634 30.3513 250.858 25.9789 249.007 21.6413C248.631 20.7465 248.181 19.8894 247.575 18.6211Z" fill="#407BFF"/>
<path d="M193.546 37.3877C187.589 37.3877 182.04 37.3877 176.234 37.3877C176.234 29.3118 176.234 21.2851 176.234 13.1368C177.663 13.1368 178.946 13.1368 180.523 13.1368C180.523 19.8692 180.523 26.4451 180.523 33.2759C184.854 33.2759 188.904 33.2759 193.261 33.2759C193.357 34.6948 193.438 35.8704 193.546 37.3877Z" fill="#1D293D"/>
<path d="M137.853 13.0847C139.325 13.0847 140.544 13.0847 142.014 13.0847C142.014 21.2011 142.014 29.222 142.014 37.3703C141.253 37.4311 140.606 37.5209 139.958 37.5267C139.314 37.5325 138.666 37.4514 137.85 37.3993C137.853 29.306 137.853 21.3401 137.853 13.0847Z" fill="#1D293D"/>
<path d="M267.215 13.0905C268.693 13.0905 269.918 13.0905 271.393 13.0905C271.393 21.204 271.393 29.2278 271.393 37.3935C269.961 37.3935 268.67 37.3935 267.215 37.3935C267.215 29.3263 267.215 21.3546 267.215 13.0905Z" fill="#407BFF"/>
<path d="M261.35 16.9243C261.662 17.0228 262.039 17.0662 262.499 17.0604C263.473 17.0459 264.447 17.0401 265.421 17.0343C264.433 17.0343 263.444 17.0372 262.456 17.0314C262.103 17.0285 261.744 16.9822 261.35 16.9243Z" fill="#407BFF"/>
<path d="M273.187 13.0673C269.609 13.0644 266.034 13.0731 262.456 13.0413C261.995 13.0384 261.607 13.076 261.286 13.1803C261.581 13.1281 261.872 13.0847 262.164 13.0847C265.838 13.0615 269.512 13.0876 273.187 13.0673Z" fill="#407BFF"/>
<path d="M277.26 13.1774C276.948 13.0789 276.572 13.0355 276.111 13.0413C275.137 13.0558 274.161 13.0616 273.187 13.0674C269.512 13.0876 265.838 13.0616 262.164 13.0818C261.872 13.0847 261.581 13.1253 261.286 13.1774C260.639 13.3859 260.274 13.8752 260.263 14.9408C260.248 16.1049 260.595 16.684 261.35 16.9214C261.744 16.9822 262.103 17.0286 262.456 17.0286C263.444 17.0344 264.433 17.0315 265.421 17.0315C268.999 17.0344 272.577 17.0257 276.155 17.0575C276.616 17.0604 277.004 17.0228 277.324 16.9185C277.972 16.71 278.336 16.2207 278.348 15.1551C278.365 13.994 278.016 13.4148 277.26 13.1774Z" fill="#407BFF"/>
<path d="M297.982 22.7445C297.982 24.2213 297.982 25.3419 297.982 26.8129C294.036 26.8129 290.17 26.8129 286.143 26.8129C286.143 29.0136 286.143 30.8697 286.143 33.0761C289.365 33.0761 292.505 33.0761 295.646 33.0761C296.063 33.0761 296.48 33.0761 296.897 33.0761C300.253 33.0732 300.434 33.3223 299.632 37.0634C293.707 37.0634 287.741 37.0634 281.337 37.0634C281.337 35.3173 281.337 33.6176 281.337 31.9179C281.34 29.4334 281.352 26.9461 281.34 24.4616C281.334 23.5263 281.567 22.759 282.664 22.7532C287.723 22.7329 292.782 22.7445 297.982 22.7445Z" fill="#407BFF"/>
<path d="M299.486 13.0326C299.486 14.298 299.486 15.2622 299.486 16.4263C298.839 16.5305 298.212 16.7129 297.585 16.7158C292.934 16.7419 288.286 16.6898 283.638 16.7593C282.066 16.7824 281.378 16.2902 281.398 14.6426C281.419 13.0442 282.215 12.7285 283.594 12.7401C288.161 12.7836 292.727 12.7488 297.294 12.7691C297.938 12.7691 298.582 12.9168 299.486 13.0326Z" fill="#407BFF"/>
<path fill-rule="evenodd" clip-rule="evenodd" d="M93.5667 39.0781C101.021 39.0781 107.064 33.0354 107.064 25.5813C107.064 18.1273 101.021 12.0845 93.5667 12.0845C86.1127 12.0845 80.07 18.1273 80.07 25.5813C80.07 27.8881 80.6487 30.0597 81.6688 31.9589C81.6643 34.4065 81.1434 38.0223 79.0318 39.0781C79.0318 39.4191 80.5434 39.4913 86.5455 37.1103C88.5911 38.3588 90.9949 39.0781 93.5667 39.0781ZM93.5667 35.0431C88.3411 35.0431 84.1049 30.8069 84.1049 25.5813C84.1049 20.3557 88.3411 16.1195 93.5667 16.1195C98.7924 16.1195 103.029 20.3557 103.029 25.5813C103.029 30.8069 98.7924 35.0431 93.5667 35.0431Z" fill="#407BFF"/>
</g>
<defs>
<clipPath id="clip0_1304_150">
<rect x="58.0318" y="8.08455" width="242" height="31" fill="white"/>
</clipPath>
</defs>
</svg>
