<svg width="242" height="31" viewBox="0 0 242 31" fill="none" xmlns="http://www.w3.org/2000/svg">
<g clip-path="url(#clip0_1304_228)">
<path d="M154.732 29.7335C153.087 29.7335 151.784 29.7335 150.274 29.7335C150.274 21.6344 150.274 13.6512 150.274 5.69689C154.146 4.71237 154.811 4.9585 156.744 7.96996C158.488 10.6861 160.243 13.3906 162.215 16.4397C162.891 15.542 163.445 14.8847 163.915 14.1695C165.556 11.6735 167.154 9.14848 168.796 6.65534C169.621 5.40443 172.68 4.68632 173.893 5.49999C174.229 5.72585 174.503 6.30786 174.5 6.72773C174.485 14.2622 174.427 21.7966 174.369 29.331C174.369 29.3947 174.27 29.4584 174.071 29.693C172.922 29.693 171.628 29.693 170.065 29.693C170.065 24.4287 170.065 18.2584 170.065 13C170 13 164.82 20.4196 162.267 24.1015C159.748 20.4154 157.409 16.9898 154.732 13.0721C154.732 18.9415 154.732 24.2029 154.732 29.7335Z" fill="#407BFF"/>
<path d="M0 25.6344C0.828158 24.6412 1.60383 23.7059 2.46989 22.6635C3.33304 23.2223 3.99499 23.7001 4.70359 24.0997C6.77107 25.2609 8.93477 26.0572 11.3755 25.6749C13.1135 25.4028 14.4724 24.2706 14.5103 22.9415C14.554 21.3286 13.3759 20.5815 12.0899 20.1414C9.73085 19.3335 7.25513 18.8413 4.94853 17.9176C1.01478 16.3394 -0.489896 11.7267 1.87502 8.2143C2.73817 6.93154 4.21661 5.72696 5.67463 5.22312C10.1712 3.66527 14.3149 4.78588 18.307 7.67861C17.5021 8.85713 16.7819 9.91404 16.1549 10.8348C14.0524 10.0762 12.2328 9.28279 10.3374 8.79343C9.44217 8.56467 8.24076 8.64864 7.46217 9.08588C6.63984 9.54629 5.76503 10.5453 5.64547 11.4082C5.54924 12.106 6.38906 13.1485 7.08892 13.6812C7.84126 14.2575 8.90561 14.4457 9.8475 14.7526C11.428 15.2681 13.0581 15.6503 14.6007 16.2526C17.7354 17.4745 19.1964 19.4812 19.1176 22.4116C19.036 25.5012 17.5663 27.67 14.7086 29.0368C10.3957 31.1013 2.51947 29.1207 0 25.6344Z" fill="#1D293D"/>
<path d="M74.8083 8.57336C74.0035 9.52602 73.1753 10.5105 72.216 11.6485C69.4049 9.68818 66.553 7.92474 63.147 9.11774C61.6482 9.64184 60.0998 10.6206 59.0996 11.8223C56.4722 14.9814 56.7288 20.1732 59.4437 23.0486C61.167 24.8728 63.3512 26.1469 65.8823 25.5939C68.0897 25.1103 70.1514 23.9723 72.6038 22.9936C73.1578 23.5727 73.986 24.4414 74.8112 25.3043C72.4317 29.0802 67.1741 30.806 61.9719 29.5406C56.7026 28.2578 52.9467 23.8825 52.5997 18.6154C52.1798 12.2537 55.0229 7.47302 60.4993 5.33026C65.4857 3.3873 71.5249 4.69322 74.8083 8.57336Z" fill="#1D293D"/>
<path d="M113.88 29.2076C113.367 29.3321 113.131 29.4277 112.889 29.4393C109.381 29.6101 109.375 29.6101 107.987 26.367C106.162 22.1018 104.354 17.8307 102.522 13.5683C102.143 12.6852 101.7 11.8281 101.079 10.525C99.0407 15.3144 97.1977 19.6434 95.3548 23.9723C94.999 24.8121 94.6316 25.646 94.2729 26.4828C92.8324 29.8447 92.7216 29.8997 88.7062 29.1323C88.8403 28.5851 88.8957 28.0088 89.1145 27.505C92.1967 20.4484 95.3519 13.4236 98.3554 6.33796C98.994 4.82934 99.9738 4.76563 101.283 4.76563C102.522 4.76274 103.461 4.84671 104.053 6.23372C107.171 13.5452 110.39 20.8161 113.566 28.1044C113.694 28.3968 113.743 28.7183 113.88 29.2076Z" fill="#1D293D"/>
<path d="M189.543 10.5366C186.77 17.0228 184.169 23.0978 181.512 29.3061C180.081 29.3061 178.626 29.3061 176.841 29.3061C177.541 27.6469 178.118 26.2222 178.736 24.8149C181.466 18.5951 184.245 12.3985 186.907 6.15261C187.464 4.84379 188.342 4.7685 189.479 4.80035C190.631 4.82931 191.745 4.57449 192.378 6.05126C195.611 13.5857 198.927 21.0825 202.205 28.5966C202.26 28.7269 202.19 28.9122 202.17 29.2221C201.823 29.2916 201.444 29.4363 201.062 29.4363C197.107 29.4248 197.982 29.8678 196.518 26.5755C194.603 22.2668 192.827 17.8944 190.975 13.5567C190.599 12.662 190.15 11.8049 189.543 10.5366Z" fill="#407BFF"/>
<path d="M135.515 29.3032C129.557 29.3032 124.008 29.3032 118.202 29.3032C118.202 21.2273 118.202 13.2006 118.202 5.05228C119.631 5.05228 120.914 5.05228 122.492 5.05228C122.492 11.7846 122.492 18.3606 122.492 25.1914C126.822 25.1914 130.872 25.1914 135.229 25.1914C135.325 26.6102 135.407 27.7858 135.515 29.3032Z" fill="#1D293D"/>
<path d="M79.821 5.00015C81.2936 5.00015 82.5125 5.00015 83.9822 5.00015C83.9822 13.1166 83.9822 21.1375 83.9822 29.2858C83.2211 29.3466 82.5738 29.4364 81.9264 29.4421C81.2819 29.4479 80.6346 29.3669 79.8181 29.3147C79.821 21.2215 79.821 13.2556 79.821 5.00015Z" fill="#1D293D"/>
<path d="M209.183 5.00592C210.661 5.00592 211.886 5.00592 213.361 5.00592C213.361 13.1195 213.361 21.1433 213.361 29.3089C211.93 29.3089 210.638 29.3089 209.183 29.3089C209.183 21.2417 209.183 13.27 209.183 5.00592Z" fill="#407BFF"/>
<path d="M203.319 8.83975C203.631 8.9382 204.007 8.98164 204.468 8.97585C205.441 8.96137 206.415 8.95558 207.389 8.94979C206.401 8.94979 205.412 8.95268 204.424 8.94689C204.071 8.94399 203.712 8.89766 203.319 8.83975Z" fill="#407BFF"/>
<path d="M215.155 4.98279C211.577 4.97989 208.002 4.98858 204.424 4.95673C203.963 4.95383 203.575 4.99147 203.254 5.09572C203.549 5.0436 203.841 5.00017 204.132 5.00017C207.806 4.977 211.481 5.00306 215.155 4.98279Z" fill="#407BFF"/>
<path d="M219.229 5.09284C218.917 4.99439 218.54 4.95096 218.08 4.95675C217.106 4.97123 216.129 4.97702 215.155 4.98281C211.481 5.00308 207.806 4.97702 204.132 4.99729C203.841 5.00018 203.549 5.04072 203.254 5.09284C202.607 5.30133 202.243 5.79069 202.231 6.85627C202.216 8.02031 202.563 8.59944 203.319 8.83688C203.712 8.89769 204.071 8.94402 204.424 8.94402C205.412 8.94981 206.401 8.94691 207.389 8.94691C210.967 8.94981 214.545 8.94112 218.123 8.97297C218.584 8.97587 218.972 8.93823 219.293 8.83398C219.94 8.6255 220.305 8.13614 220.316 7.07055C220.334 5.90941 219.984 5.33028 219.229 5.09284Z" fill="#407BFF"/>
<path d="M239.95 14.66C239.95 16.1367 239.95 17.2574 239.95 18.7283C236.005 18.7283 232.138 18.7283 228.111 18.7283C228.111 20.929 228.111 22.7851 228.111 24.9916C231.333 24.9916 234.474 24.9916 237.614 24.9916C238.031 24.9916 238.448 24.9916 238.865 24.9916C242.222 24.9887 242.402 25.2377 241.6 28.9789C235.675 28.9789 229.709 28.9789 223.305 28.9789C223.305 27.2328 223.305 25.5331 223.305 23.8333C223.308 21.3489 223.32 18.8615 223.308 16.3771C223.302 15.4418 223.536 14.6745 224.632 14.6687C229.691 14.6484 234.751 14.66 239.95 14.66Z" fill="#407BFF"/>
<path d="M241.455 4.94803C241.455 6.21343 241.455 7.17767 241.455 8.34172C240.807 8.44596 240.18 8.62839 239.553 8.63128C234.902 8.65734 230.254 8.60522 225.606 8.67471C224.034 8.69788 223.346 8.20562 223.366 6.55801C223.387 4.95962 224.183 4.64399 225.562 4.65558C230.129 4.69901 234.695 4.66426 239.262 4.68453C239.906 4.68453 240.551 4.83221 241.455 4.94803Z" fill="#407BFF"/>
<path fill-rule="evenodd" clip-rule="evenodd" d="M35.535 30.9935C42.989 30.9935 49.0318 24.9508 49.0318 17.4968C49.0318 10.0427 42.989 4 35.535 4C28.0809 4 22.0382 10.0427 22.0382 17.4968C22.0382 19.8035 22.6169 21.9751 23.637 23.8743C23.6326 26.322 23.1116 29.9377 21 30.9935C21 31.3345 22.5117 31.4067 28.5138 29.0258C30.5594 30.2742 32.9632 30.9935 35.535 30.9935ZM35.535 26.9586C30.3094 26.9586 26.0732 22.7224 26.0732 17.4968C26.0732 12.2712 30.3094 8.03495 35.535 8.03495C40.7606 8.03495 44.9968 12.2712 44.9968 17.4968C44.9968 22.7224 40.7606 26.9586 35.535 26.9586Z" fill="#407BFF"/>
</g>
<defs>
<clipPath id="clip0_1304_228">
<rect width="242" height="31" fill="white"/>
</clipPath>
</defs>
</svg>
