<svg width="170" height="167" viewBox="0 0 170 167" fill="none" xmlns="http://www.w3.org/2000/svg">
<rect width="169.076" height="166.071" rx="17.8571" fill="#BCE7FF"/>
<path fill-rule="evenodd" clip-rule="evenodd" d="M86.3466 129.746C112.313 129.746 133.362 108.696 133.362 82.7299C133.362 56.7639 112.313 35.7143 86.3466 35.7143C60.3806 35.7143 39.331 56.7639 39.331 82.7299C39.331 90.7654 41.3468 98.3301 44.9004 104.946C44.8848 113.472 43.0701 126.068 35.7143 129.746C35.7143 130.933 40.9802 131.185 61.8885 122.891C69.0142 127.24 77.3878 129.746 86.3466 129.746ZM86.3466 115.69C68.1433 115.69 53.3866 100.933 53.3866 82.7299C53.3866 64.5266 68.1433 49.77 86.3466 49.77C104.55 49.77 119.307 64.5266 119.307 82.7299C119.307 100.933 104.55 115.69 86.3466 115.69Z" fill="#407BFF"/>
</svg>
