<svg width="136" height="44" viewBox="0 0 136 44" fill="none" xmlns="http://www.w3.org/2000/svg">
<path d="M8 0.5H128C132.142 0.5 135.5 3.85786 135.5 8V36C135.5 40.1421 132.142 43.5 128 43.5H8C3.85786 43.5 0.5 40.1421 0.5 36V8C0.5 3.85786 3.85786 0.5 8 0.5Z" stroke="#90A1B9"/>
<path d="M40.0002 17.0933C41.5024 17.0933 42.5157 17.7422 43.0935 18.2844L45.3513 16.08C43.9646 14.7911 42.1602 14 40.0002 14C36.8713 14 34.1691 15.7955 32.8535 18.4089L35.4402 20.4178C36.0891 18.4889 37.8846 17.0933 40.0002 17.0933Z" fill="#EA4335"/>
<path d="M47.68 22.1776C47.68 21.5198 47.6267 21.0398 47.5111 20.542H40V23.5109H44.4089C44.32 24.2487 43.84 25.3598 42.7733 26.1065L45.2978 28.062C46.8089 26.6665 47.68 24.6131 47.68 22.1776Z" fill="#4285F4"/>
<path d="M35.4489 23.5824C35.28 23.0847 35.1822 22.5513 35.1822 22.0002C35.1822 21.4491 35.28 20.9158 35.44 20.418L32.8533 18.4091C32.3111 19.4935 32 20.7113 32 22.0002C32 23.2891 32.3111 24.5069 32.8533 25.5913L35.4489 23.5824Z" fill="#FBBC05"/>
<path d="M39.9997 30C42.1597 30 43.973 29.2889 45.2975 28.0622L42.773 26.1067C42.0975 26.5778 41.1908 26.9067 39.9997 26.9067C37.8841 26.9067 36.0886 25.5111 35.4486 23.5822L32.8619 25.5911C34.1775 28.2045 36.8708 30 39.9997 30Z" fill="#34A853"/>
<path d="M61.3457 27.2324C58.6182 27.2324 56.875 25.2227 56.875 22.0713V22.0576C56.875 18.9473 58.6455 16.9033 61.3457 16.9033C63.5332 16.9033 65.0713 18.1338 65.4609 20.0068L65.4746 20.0752H64.2305L64.21 20.0068C63.8066 18.7354 62.8154 18.0381 61.3457 18.0381C59.3906 18.0381 58.1328 19.6104 58.1328 22.0576V22.0713C58.1328 24.5527 59.3701 26.0977 61.3525 26.0977C63.1162 26.0977 64.3057 24.9697 64.3057 23.3018V23.0625H61.5371V21.9824H65.5361V23.1855C65.5361 25.6191 63.8682 27.2324 61.3457 27.2324ZM70.5947 27.1299C68.4961 27.1299 67.1973 25.6807 67.1973 23.3223V23.3086C67.1973 20.9434 68.4961 19.501 70.5947 19.501C72.6934 19.501 73.9922 20.9434 73.9922 23.3086V23.3223C73.9922 25.6807 72.6934 27.1299 70.5947 27.1299ZM70.5947 26.0771C71.9893 26.0771 72.7754 25.0586 72.7754 23.3223V23.3086C72.7754 21.5654 71.9893 20.5537 70.5947 20.5537C69.2002 20.5537 68.4141 21.5654 68.4141 23.3086V23.3223C68.4141 25.0586 69.2002 26.0771 70.5947 26.0771ZM78.8662 27.1299C76.7676 27.1299 75.4688 25.6807 75.4688 23.3223V23.3086C75.4688 20.9434 76.7676 19.501 78.8662 19.501C80.9648 19.501 82.2637 20.9434 82.2637 23.3086V23.3223C82.2637 25.6807 80.9648 27.1299 78.8662 27.1299ZM78.8662 26.0771C80.2607 26.0771 81.0469 25.0586 81.0469 23.3223V23.3086C81.0469 21.5654 80.2607 20.5537 78.8662 20.5537C77.4717 20.5537 76.6855 21.5654 76.6855 23.3086V23.3223C76.6855 25.0586 77.4717 26.0771 78.8662 26.0771ZM87.1445 29.5977C85.3672 29.5977 84.2324 28.7979 84.0479 27.5879L84.0615 27.5811H85.292L85.2988 27.5879C85.4287 28.1484 86.085 28.5449 87.1445 28.5449C88.4639 28.5449 89.25 27.9229 89.25 26.8359V25.3457H89.1406C88.6758 26.1592 87.8418 26.6172 86.8301 26.6172C84.9229 26.6172 83.7402 25.1406 83.7402 23.0762V23.0625C83.7402 20.998 84.9297 19.501 86.8574 19.501C87.8965 19.501 88.7031 20.0137 89.1543 20.8477H89.2363V19.6309H90.4258V26.8975C90.4258 28.5449 89.1543 29.5977 87.1445 29.5977ZM87.0898 25.5645C88.457 25.5645 89.2773 24.5391 89.2773 23.0762V23.0625C89.2773 21.5996 88.4502 20.5537 87.0898 20.5537C85.7227 20.5537 84.957 21.5996 84.957 23.0625V23.0762C84.957 24.5391 85.7227 25.5645 87.0898 25.5645ZM92.709 27V16.7051H93.8984V27H92.709ZM99.1895 27.1299C97.084 27.1299 95.8125 25.6533 95.8125 23.3428V23.3359C95.8125 21.0596 97.1113 19.501 99.1143 19.501C101.117 19.501 102.334 20.9912 102.334 23.1924V23.6572H97.0293C97.0635 25.1816 97.9043 26.0703 99.2168 26.0703C100.215 26.0703 100.83 25.5986 101.028 25.1543L101.056 25.0928H102.245L102.231 25.1475C101.979 26.1455 100.926 27.1299 99.1895 27.1299ZM99.1074 20.5605C98.0137 20.5605 97.1797 21.3057 97.0498 22.707H101.124C101.001 21.251 100.194 20.5605 99.1074 20.5605Z" fill="#45556C"/>
</svg>
