<svg width="152" height="44" viewBox="0 0 152 44" fill="none" xmlns="http://www.w3.org/2000/svg">
<path d="M8 0.5H143.326C147.468 0.5 150.826 3.85786 150.826 8V36C150.826 40.1421 147.468 43.5 143.326 43.5H8C3.85787 43.5 0.5 40.1421 0.5 36V8C0.5 3.85786 3.85786 0.5 8 0.5Z" stroke="#90A1B9"/>
<path d="M32 14H39.7583V21.6031H32V14Z" fill="#F25022"/>
<path d="M40.5683 14H48.3265V21.6031H40.5683V14Z" fill="#7FBA00"/>
<path d="M32 22.3969H39.7583V30H32V22.3969Z" fill="#00A4EF"/>
<path d="M40.5683 22.3969H48.3265V30H40.5683V22.3969Z" fill="#FFB900"/>
<path d="M57.5844 27V17.1357H59.0131L62.39 25.3662H62.4994L65.8763 17.1357H67.3051V27H66.1566V19.4668H66.0814L62.9642 27H61.9252L58.808 19.4668H58.7328V27H57.5844ZM70.2992 18.209C69.848 18.209 69.4789 17.8398 69.4789 17.3887C69.4789 16.9375 69.848 16.5684 70.2992 16.5684C70.7504 16.5684 71.1195 16.9375 71.1195 17.3887C71.1195 17.8398 70.7504 18.209 70.2992 18.209ZM69.6976 27V19.6309H70.8871V27H69.6976ZM76.1439 27.1299C74.0795 27.1299 72.7601 25.6328 72.7601 23.2949V23.2812C72.7601 20.9912 74.0726 19.501 76.1371 19.501C77.9281 19.501 79.0013 20.5332 79.2201 21.8457L79.2269 21.8867H78.0443L78.0375 21.8662C77.8529 21.1416 77.1967 20.5537 76.1371 20.5537C74.8109 20.5537 73.9769 21.6201 73.9769 23.2812V23.2949C73.9769 24.9902 74.8246 26.0771 76.1371 26.0771C77.1283 26.0771 77.7572 25.6396 78.0306 24.8193L78.0443 24.7783L79.2201 24.7715L79.2064 24.8467C78.9056 26.1797 77.9144 27.1299 76.1439 27.1299ZM80.9633 27V19.6309H82.1527V20.7246H82.2621C82.5424 19.9521 83.2328 19.501 84.2308 19.501C84.4564 19.501 84.7094 19.5283 84.8256 19.5488V20.7041C84.5795 20.6631 84.3539 20.6357 84.0941 20.6357C82.9594 20.6357 82.1527 21.3535 82.1527 22.4336V27H80.9633ZM89.1185 27.1299C87.0199 27.1299 85.7211 25.6807 85.7211 23.3223V23.3086C85.7211 20.9434 87.0199 19.501 89.1185 19.501C91.2172 19.501 92.516 20.9434 92.516 23.3086V23.3223C92.516 25.6807 91.2172 27.1299 89.1185 27.1299ZM89.1185 26.0771C90.5131 26.0771 91.2992 25.0586 91.2992 23.3223V23.3086C91.2992 21.5654 90.5131 20.5537 89.1185 20.5537C87.724 20.5537 86.9379 21.5654 86.9379 23.3086V23.3223C86.9379 25.0586 87.724 26.0771 89.1185 26.0771ZM96.891 27.1299C95.2504 27.1299 94.1224 26.3369 93.9857 25.1201H95.2025C95.4008 25.7354 95.9886 26.1387 96.932 26.1387C97.9232 26.1387 98.6273 25.667 98.6273 24.9971V24.9834C98.6273 24.4844 98.2513 24.1357 97.3422 23.917L96.2006 23.6436C94.8197 23.3154 94.1976 22.7139 94.1976 21.6543V21.6475C94.1976 20.4238 95.3734 19.501 96.9388 19.501C98.4838 19.501 99.557 20.2734 99.7211 21.4766H98.5521C98.3949 20.8955 97.8207 20.4922 96.932 20.4922C96.057 20.4922 95.4144 20.9434 95.4144 21.5928V21.6064C95.4144 22.1055 95.7836 22.4199 96.6517 22.6318L97.7865 22.9053C99.1742 23.2402 99.8441 23.8418 99.8441 24.8945V24.9082C99.8441 26.2207 98.5658 27.1299 96.891 27.1299ZM104.718 27.1299C102.62 27.1299 101.321 25.6807 101.321 23.3223V23.3086C101.321 20.9434 102.62 19.501 104.718 19.501C106.817 19.501 108.116 20.9434 108.116 23.3086V23.3223C108.116 25.6807 106.817 27.1299 104.718 27.1299ZM104.718 26.0771C106.113 26.0771 106.899 25.0586 106.899 23.3223V23.3086C106.899 21.5654 106.113 20.5537 104.718 20.5537C103.324 20.5537 102.537 21.5654 102.537 23.3086V23.3223C102.537 25.0586 103.324 26.0771 104.718 26.0771ZM110.453 27V20.6152H109.23V19.6309H110.453V18.8105C110.453 17.3408 111.192 16.6367 112.593 16.6367C112.88 16.6367 113.14 16.6572 113.386 16.7051V17.6553C113.243 17.6279 113.044 17.6211 112.832 17.6211C111.985 17.6211 111.643 18.0381 111.643 18.8447V19.6309H113.318V20.6152H111.643V27H110.453ZM117.652 27.0547C116.134 27.0547 115.498 26.4941 115.498 25.0859V20.6152H114.336V19.6309H115.498V17.7236H116.729V19.6309H118.342V20.6152H116.729V24.7852C116.729 25.6533 117.03 26.002 117.795 26.002C118.007 26.002 118.123 25.9951 118.342 25.9746V26.9863C118.11 27.0273 117.884 27.0547 117.652 27.0547Z" fill="#45556C"/>
</svg>
